<svg width="13" height="14" viewBox="0 0 13 14" fill="none" xmlns="http://www.w3.org/2000/svg">
<path d="M10.8833 5.31213C10.8833 5.31213 10.5213 9.80213 10.3113 11.6935C10.2113 12.5968 9.65327 13.1261 8.73927 13.1428C6.99994 13.1741 5.25861 13.1761 3.51994 13.1395C2.64061 13.1215 2.09194 12.5855 1.99394 11.6981C1.78261 9.79013 1.42261 5.31213 1.42261 5.31213" stroke="black" stroke-linecap="round" stroke-linejoin="round"/>
<path d="M11.8055 3.15979H0.500122" stroke="black" stroke-linecap="round" stroke-linejoin="round"/>
<path d="M9.62701 3.15974C9.10368 3.15974 8.65301 2.78974 8.55034 2.27707L8.38834 1.46641C8.28834 1.09241 7.94968 0.83374 7.56368 0.83374H4.74168C4.35568 0.83374 4.01701 1.09241 3.91701 1.46641L3.75501 2.27707C3.65234 2.78974 3.20168 3.15974 2.67834 3.15974" stroke="black" stroke-linecap="round" stroke-linejoin="round"/>
</svg>
